<mxfile host="app.diagrams.net" agent="Mozilla/5.0 (Windows NT 10.0; Win64; x64) AppleWebKit/537.36 (KHTML, like Gecko) Chrome/129.0.0.0 Safari/537.36" version="24.7.17">
  <diagram name="Page-1" id="bw9Cdeh5ORUAjiQL8e8c">
    <mxGraphModel dx="989" dy="538" grid="1" gridSize="10" guides="1" tooltips="1" connect="1" arrows="1" fold="1" page="1" pageScale="1" pageWidth="850" pageHeight="1100" math="0" shadow="0">
      <root>
        <mxCell id="0" />
        <mxCell id="1" parent="0" />
        <mxCell id="JryNC5uek4CSkGon9X9c-1" value="E-OFFICE" style="shape=table;childLayout=tableLayout;startSize=40;collapsible=0;recursiveResize=0;expand=0;fillColor=none;fontStyle=1" vertex="1" parent="1">
          <mxGeometry x="51" y="530" width="520" height="350" as="geometry" />
        </mxCell>
        <mxCell id="JryNC5uek4CSkGon9X9c-2" value="EKSPEDISI SURAT" style="shape=tableRow;horizontal=0;swimlaneHead=0;swimlaneBody=0;top=0;left=0;bottom=0;right=0;fillColor=none;points=[[0,0.5],[1,0.5]];portConstraint=eastwest;startSize=40;collapsible=0;recursiveResize=0;expand=0;fontStyle=1;" vertex="1" parent="JryNC5uek4CSkGon9X9c-1">
          <mxGeometry y="40" width="520" height="310" as="geometry" />
        </mxCell>
        <mxCell id="JryNC5uek4CSkGon9X9c-3" value="TATA USAHA" style="swimlane;swimlaneHead=0;swimlaneBody=0;connectable=0;fillColor=none;startSize=40;collapsible=0;recursiveResize=0;expand=0;fontStyle=1;" vertex="1" parent="JryNC5uek4CSkGon9X9c-2">
          <mxGeometry x="40" width="150" height="310" as="geometry">
            <mxRectangle width="150" height="310" as="alternateBounds" />
          </mxGeometry>
        </mxCell>
        <mxCell id="JryNC5uek4CSkGon9X9c-4" value="MULAI" style="rounded=1;whiteSpace=wrap;html=1;arcSize=50;" vertex="1" parent="JryNC5uek4CSkGon9X9c-3">
          <mxGeometry x="20" y="50" width="110" height="40" as="geometry" />
        </mxCell>
        <mxCell id="JryNC5uek4CSkGon9X9c-5" style="edgeStyle=orthogonalEdgeStyle;rounded=0;orthogonalLoop=1;jettySize=auto;html=1;" edge="1" parent="JryNC5uek4CSkGon9X9c-3">
          <mxGeometry relative="1" as="geometry">
            <mxPoint x="74.76" y="90" as="sourcePoint" />
            <mxPoint x="74.76" y="119" as="targetPoint" />
            <Array as="points">
              <mxPoint x="74.76" y="99" />
            </Array>
          </mxGeometry>
        </mxCell>
        <mxCell id="JryNC5uek4CSkGon9X9c-8" value="PILIH SURAT KELUAR &amp;amp; TUJUAN DISPOSISI" style="rounded=0;whiteSpace=wrap;html=1;" vertex="1" parent="JryNC5uek4CSkGon9X9c-3">
          <mxGeometry x="10" y="120" width="120" height="60" as="geometry" />
        </mxCell>
        <mxCell id="JryNC5uek4CSkGon9X9c-10" value="TATA USAHA (TUJUAN)" style="swimlane;swimlaneHead=0;swimlaneBody=0;connectable=0;fillColor=none;startSize=40;collapsible=0;recursiveResize=0;expand=0;fontStyle=1;" vertex="1" parent="JryNC5uek4CSkGon9X9c-2">
          <mxGeometry x="190" width="150" height="310" as="geometry">
            <mxRectangle width="150" height="310" as="alternateBounds" />
          </mxGeometry>
        </mxCell>
        <mxCell id="JryNC5uek4CSkGon9X9c-11" value="NOTIFIKASI SURAT MASUK" style="rounded=0;whiteSpace=wrap;html=1;" vertex="1" parent="JryNC5uek4CSkGon9X9c-10">
          <mxGeometry x="30" y="150" width="90" height="40" as="geometry" />
        </mxCell>
        <mxCell id="JryNC5uek4CSkGon9X9c-13" value="" style="endArrow=classic;html=1;rounded=0;entryX=0.5;entryY=0;entryDx=0;entryDy=0;exitX=0.5;exitY=1;exitDx=0;exitDy=0;" edge="1" parent="JryNC5uek4CSkGon9X9c-10" source="JryNC5uek4CSkGon9X9c-11" target="JryNC5uek4CSkGon9X9c-26">
          <mxGeometry width="50" height="50" relative="1" as="geometry">
            <mxPoint x="200" y="410" as="sourcePoint" />
            <mxPoint x="250" y="360" as="targetPoint" />
          </mxGeometry>
        </mxCell>
        <mxCell id="JryNC5uek4CSkGon9X9c-26" value="VERIFIKASI SURAT" style="rounded=0;whiteSpace=wrap;html=1;" vertex="1" parent="JryNC5uek4CSkGon9X9c-10">
          <mxGeometry x="30" y="240" width="90" height="40" as="geometry" />
        </mxCell>
        <mxCell id="JryNC5uek4CSkGon9X9c-14" value="ESELON PIMPINAN &#xa;(TUJUAN)" style="swimlane;swimlaneHead=0;swimlaneBody=0;connectable=0;fillColor=none;startSize=40;collapsible=0;recursiveResize=0;expand=0;fontStyle=1;" vertex="1" parent="JryNC5uek4CSkGon9X9c-2">
          <mxGeometry x="340" width="180" height="310" as="geometry">
            <mxRectangle width="180" height="310" as="alternateBounds" />
          </mxGeometry>
        </mxCell>
        <mxCell id="JryNC5uek4CSkGon9X9c-15" value="NOTIFIKASI SURAT MASUK" style="rounded=0;whiteSpace=wrap;html=1;" vertex="1" parent="JryNC5uek4CSkGon9X9c-14">
          <mxGeometry x="45" y="110" width="90" height="40" as="geometry" />
        </mxCell>
        <mxCell id="JryNC5uek4CSkGon9X9c-7" value="SELESAI" style="rounded=1;whiteSpace=wrap;html=1;arcSize=50;" vertex="1" parent="JryNC5uek4CSkGon9X9c-14">
          <mxGeometry x="35" y="220" width="110" height="40" as="geometry" />
        </mxCell>
        <mxCell id="JryNC5uek4CSkGon9X9c-9" value="" style="endArrow=classic;html=1;rounded=0;entryX=0.5;entryY=0;entryDx=0;entryDy=0;exitX=0.5;exitY=1;exitDx=0;exitDy=0;" edge="1" parent="JryNC5uek4CSkGon9X9c-14" source="JryNC5uek4CSkGon9X9c-15" target="JryNC5uek4CSkGon9X9c-7">
          <mxGeometry width="50" height="50" relative="1" as="geometry">
            <mxPoint x="-225" y="490" as="sourcePoint" />
            <mxPoint x="-210" y="380" as="targetPoint" />
          </mxGeometry>
        </mxCell>
        <mxCell id="JryNC5uek4CSkGon9X9c-22" value="" style="edgeStyle=segmentEdgeStyle;endArrow=classic;html=1;curved=0;rounded=0;endSize=8;startSize=8;exitX=1;exitY=0.5;exitDx=0;exitDy=0;entryX=0;entryY=0.5;entryDx=0;entryDy=0;" edge="1" parent="JryNC5uek4CSkGon9X9c-2" source="JryNC5uek4CSkGon9X9c-8" target="JryNC5uek4CSkGon9X9c-11">
          <mxGeometry width="50" height="50" relative="1" as="geometry">
            <mxPoint x="112.5" y="180" as="sourcePoint" />
            <mxPoint x="650" y="170" as="targetPoint" />
            <Array as="points">
              <mxPoint x="199" y="150" />
              <mxPoint x="199" y="170" />
            </Array>
          </mxGeometry>
        </mxCell>
        <mxCell id="JryNC5uek4CSkGon9X9c-28" value="" style="edgeStyle=segmentEdgeStyle;endArrow=classic;html=1;curved=0;rounded=0;endSize=8;startSize=8;exitX=1;exitY=0.5;exitDx=0;exitDy=0;entryX=0;entryY=0.5;entryDx=0;entryDy=0;" edge="1" parent="JryNC5uek4CSkGon9X9c-2" source="JryNC5uek4CSkGon9X9c-8" target="JryNC5uek4CSkGon9X9c-15">
          <mxGeometry width="50" height="50" relative="1" as="geometry">
            <mxPoint x="180" y="160" as="sourcePoint" />
            <mxPoint x="369" y="130" as="targetPoint" />
            <Array as="points">
              <mxPoint x="199" y="150" />
              <mxPoint x="199" y="130" />
            </Array>
          </mxGeometry>
        </mxCell>
      </root>
    </mxGraphModel>
  </diagram>
</mxfile>
